<?xml version="1.0" encoding="UTF-8"?>
<svg width="1000" height="1000" viewBox="0 0 1000 1000" xmlns="http://www.w3.org/2000/svg">
  <defs>
    <pattern id="grid" width="50" height="50" patternUnits="userSpaceOnUse">
      <path d="M 50 0 L 0 0 0 50" fill="none" stroke="#0066cc" stroke-width="0.5" opacity="0.3"/>
    </pattern>
    <radialGradient id="glow" cx="50%" cy="50%" r="50%" fx="50%" fy="50%">
      <stop offset="0%" stop-color="#007bff" stop-opacity="0.2"/>
      <stop offset="100%" stop-color="#03152e" stop-opacity="0"/>
    </radialGradient>
  </defs>
  <rect width="100%" height="100%" fill="#010c18"/>
  <rect width="100%" height="100%" fill="url(#grid)"/>
  <circle cx="500" cy="500" r="450" fill="url(#glow)"/>
  <g opacity="0.5">
    <!-- Scattered small dots -->
    <g fill="#00aaff" opacity="0.6">
      <circle cx="120" cy="230" r="1.2"/>
      <circle cx="450" cy="780" r="1.1"/>
      <circle cx="780" cy="350" r="1"/>
      <circle cx="620" cy="120" r="1.3"/>
      <circle cx="230" cy="670" r="1"/>
      <circle cx="850" cy="530" r="1.2"/>
      <circle cx="320" cy="450" r="1.1"/>
      <circle cx="540" cy="230" r="1"/>
      <circle cx="680" cy="680" r="1.2"/>
      <circle cx="180" cy="530" r="1.1"/>
      <circle cx="780" cy="780" r="1"/>
      <circle cx="380" cy="120" r="1.2"/>
      <circle cx="230" cy="380" r="1"/>
      <circle cx="600" cy="450" r="1.1"/>
      <circle cx="830" cy="230" r="1.2"/>
      <circle cx="480" cy="350" r="1"/>
      <circle cx="180" cy="780" r="1.1"/>
      <circle cx="750" cy="680" r="1.2"/>
      <circle cx="320" cy="320" r="1"/>
      <circle cx="580" cy="580" r="1.1"/>
      <circle cx="120" cy="480" r="1"/>
    </g>
    <!-- Connecting lines for constellation effect -->
    <g stroke="#0077cc" stroke-width="0.5" opacity="0.2">
      <path d="M 120 230 L 230 380 L 320 450 L 480 350 L 540 230 L 620 120"/>
      <path d="M 780 350 L 680 680 L 780 780 L 450 780 L 320 450"/>
      <path d="M 230 670 L 180 530 L 320 320 L 600 450 L 750 680"/>
      <path d="M 580 580 L 480 350 L 380 120"/>
      <path d="M 600 450 L 830 230"/>
      <path d="M 180 780 L 230 670"/>
    </g>
  </g>
</svg>