<?xml version="1.0" encoding="UTF-8"?>
<svg width="100" height="100" viewBox="0 0 100 100" xmlns="http://www.w3.org/2000/svg">
  <defs>
    <linearGradient id="noteGradient" x1="0%" y1="0%" x2="100%" y2="100%">
      <stop offset="0%" stop-color="#00aaff"/>
      <stop offset="100%" stop-color="#0077cc"/>
    </linearGradient>
    <filter id="noteGlow" x="-50%" y="-50%" width="200%" height="200%">
      <feGaussianBlur stdDeviation="2" result="blur"/>
      <feComposite in="SourceGraphic" in2="blur" operator="over"/>
    </filter>
  </defs>
  
  <!-- Notebook page with fold -->
  <g filter="url(#noteGlow)">
    <path d="M 30 20 L 70 20 L 70 80 L 30 80 Z" fill="#021b33" stroke="url(#noteGradient)" stroke-width="1.5"/>
    <path d="M 30 20 L 30 80" stroke="url(#noteGradient)" stroke-width="2" stroke-dasharray="2,3"/>
    
    <!-- Note lines -->
    <line x1="35" y1="30" x2="65" y2="30" stroke="#0066cc" stroke-width="1" opacity="0.8"/>
    <line x1="35" y1="40" x2="65" y2="40" stroke="#0066cc" stroke-width="1" opacity="0.8"/>
    <line x1="35" y1="50" x2="65" y2="50" stroke="#0066cc" stroke-width="1" opacity="0.8"/>
    <line x1="35" y1="60" x2="65" y2="60" stroke="#0066cc" stroke-width="1" opacity="0.8"/>
    <line x1="35" y1="70" x2="55" y2="70" stroke="#0066cc" stroke-width="1" opacity="0.8"/>
    
    <!-- Notepad binding holes -->
    <circle cx="30" cy="30" r="2" fill="none" stroke="#00aaff" stroke-width="1" opacity="0.8"/>
    <circle cx="30" cy="45" r="2" fill="none" stroke="#00aaff" stroke-width="1" opacity="0.8"/>
    <circle cx="30" cy="60" r="2" fill="none" stroke="#00aaff" stroke-width="1" opacity="0.8"/>
    <circle cx="30" cy="75" r="2" fill="none" stroke="#00aaff" stroke-width="1" opacity="0.8"/>
  </g>
  
  <!-- Pen -->
  <g transform="rotate(-45, 65, 35)">
    <rect x="60" y="25" width="10" height="2" rx="1" fill="#00aaff"/>
    <rect x="60" y="25" width="20" height="2" rx="1" fill="none" stroke="#00aaff" stroke-width="0.5"/>
    <line x1="80" y1="26" x2="84" y2="26" stroke="#00aaff" stroke-width="0.5"/>
    <circle cx="62" cy="26" r="1" fill="#ffffff"/>
  </g>
</svg>