<?xml version="1.0" encoding="UTF-8"?>
<svg width="200" height="200" viewBox="0 0 200 200" xmlns="http://www.w3.org/2000/svg">
  <defs>
    <linearGradient id="nodeGradient" x1="0%" y1="0%" x2="100%" y2="100%">
      <stop offset="0%" stop-color="#00ffbb"/>
      <stop offset="100%" stop-color="#00d6a1"/>
    </linearGradient>
    
    <filter id="glow" x="-50%" y="-50%" width="200%" height="200%">
      <feGaussianBlur stdDeviation="2" result="blur"/>
      <feComposite in="SourceGraphic" in2="blur" operator="over"/>
    </filter>
    
    <filter id="smallGlow" x="-50%" y="-50%" width="200%" height="200%">
      <feGaussianBlur stdDeviation="1" result="blur"/>
      <feComposite in="SourceGraphic" in2="blur" operator="over"/>
    </filter>
    
    <!-- Scanner animation -->
    <linearGradient id="scanline" x1="0%" y1="0%" x2="0%" y2="100%">
      <stop offset="0%" stop-color="#000000" stop-opacity="0"/>
      <stop offset="45%" stop-color="#00ffbb" stop-opacity="0.1"/>
      <stop offset="50%" stop-color="#00ffbb" stop-opacity="0.3"/>
      <stop offset="55%" stop-color="#00ffbb" stop-opacity="0.1"/>
      <stop offset="100%" stop-color="#000000" stop-opacity="0"/>
      <animate attributeName="y1" from="0%" to="100%" dur="3s" repeatCount="indefinite"/>
      <animate attributeName="y2" from="100%" to="200%" dur="3s" repeatCount="indefinite"/>
    </linearGradient>
  </defs>
  
  <!-- Background -->
  <rect width="100%" height="100%" fill="#000000" opacity="0.6" rx="10" ry="10"/>
  
  <!-- Central Node -->
  <circle cx="100" cy="100" r="22" fill="#0d0d0d" stroke="url(#nodeGradient)" stroke-width="2" filter="url(#glow)"/>
  
  <!-- Connections -->
  <g stroke="url(#nodeGradient)" stroke-width="1.5" opacity="0.8" filter="url(#smallGlow)">
    <!-- Main connections -->
    <line x1="100" y1="78" x2="100" y2="45" />
    <line x1="100" y1="122" x2="100" y2="155" />
    <line x1="78" y1="100" x2="45" y2="100" />
    <line x1="122" y1="100" x2="155" y2="100" />
    
    <!-- Diagonal connections -->
    <line x1="85" y1="85" x2="60" y2="60" />
    <line x1="115" y1="85" x2="140" y2="60" />
    <line x1="85" y1="115" x2="60" y2="140" />
    <line x1="115" y1="115" x2="140" y2="140" />

    <!-- Data flow animations -->
    <circle cx="100" cy="78" r="2" fill="#00ffbb">
      <animate attributeName="cy" values="78;45" dur="1.5s" repeatCount="indefinite"/>
      <animate attributeName="opacity" values="0;1;0" dur="1.5s" repeatCount="indefinite"/>
    </circle>
    
    <circle cx="122" cy="100" r="2" fill="#00ffbb">
      <animate attributeName="cx" values="122;155" dur="1.2s" repeatCount="indefinite"/>
      <animate attributeName="opacity" values="0;1;0" dur="1.2s" repeatCount="indefinite"/>
    </circle>
    
    <circle cx="100" cy="122" r="2" fill="#00ffbb">
      <animate attributeName="cy" values="122;155" dur="1.8s" repeatCount="indefinite"/>
      <animate attributeName="opacity" values="0;1;0" dur="1.8s" repeatCount="indefinite"/>
    </circle>
    
    <circle cx="78" cy="100" r="2" fill="#00ffbb">
      <animate attributeName="cx" values="78;45" dur="1.4s" repeatCount="indefinite"/>
      <animate attributeName="opacity" values="0;1;0" dur="1.4s" repeatCount="indefinite"/>
    </circle>
  </g>
  
  <!-- Nodes -->
  <g filter="url(#glow)">
    <!-- Top node - Document -->
    <circle cx="100" cy="45" r="12" fill="#0d0d0d" stroke="url(#nodeGradient)" stroke-width="1.5"/>
    <path d="M95 40 L105 40 L105 50 L95 50 Z" fill="none" stroke="#00ffbb" stroke-width="1"/>
    <path d="M97 43 L103 43" stroke="#00ffbb" stroke-width="0.8"/>
    <path d="M97 45 L103 45" stroke="#00ffbb" stroke-width="0.8"/>
    <path d="M97 47 L101 47" stroke="#00ffbb" stroke-width="0.8"/>
    
    <!-- Right node - Magnifying glass -->
    <circle cx="155" cy="100" r="12" fill="#0d0d0d" stroke="url(#nodeGradient)" stroke-width="1.5"/>
    <circle cx="155" cy="98" r="7" fill="none" stroke="#00ffbb" stroke-width="1"/>
    <line x1="160" y1="103" x2="163" y2="106" stroke="#00ffbb" stroke-width="1.5"/>
    
    <!-- Bottom node - Graph -->
    <circle cx="100" cy="155" r="12" fill="#0d0d0d" stroke="url(#nodeGradient)" stroke-width="1.5"/>
    <polyline points="95,159 97,155 100,156 103,151 105,154" fill="none" stroke="#00ffbb" stroke-width="1"/>
    
    <!-- Left node - Data points -->
    <circle cx="45" cy="100" r="12" fill="#0d0d0d" stroke="url(#nodeGradient)" stroke-width="1.5"/>
    <circle cx="43" cy="97" r="1" fill="#00ffbb"/>
    <circle cx="47" cy="95" r="1" fill="#00ffbb"/>
    <circle cx="45" cy="102" r="1" fill="#00ffbb"/>
    <circle cx="48" cy="104" r="1" fill="#00ffbb"/>
    <circle cx="42" cy="103" r="1" fill="#00ffbb"/>
    
    <!-- Diagonal nodes (smaller) -->
    <circle cx="60" cy="60" r="8" fill="#0d0d0d" stroke="url(#nodeGradient)" stroke-width="1.2"/>
    <text x="60" y="62" font-family="monospace" font-size="10" text-anchor="middle" fill="#00ffbb">A</text>
    
    <circle cx="140" cy="60" r="8" fill="#0d0d0d" stroke="url(#nodeGradient)" stroke-width="1.2"/>
    <text x="140" y="62" font-family="monospace" font-size="10" text-anchor="middle" fill="#00ffbb">1</text>
    
    <circle cx="60" cy="140" r="8" fill="#0d0d0d" stroke="url(#nodeGradient)" stroke-width="1.2"/>
    <text x="60" y="142" font-family="monospace" font-size="10" text-anchor="middle" fill="#00ffbb">B</text>
    
    <circle cx="140" cy="140" r="8" fill="#0d0d0d" stroke="url(#nodeGradient)" stroke-width="1.2"/>
    <text x="140" y="142" font-family="monospace" font-size="10" text-anchor="middle" fill="#00ffbb">2</text>
  </g>
  
  <!-- Central node detailed content -->
  <circle cx="100" cy="100" r="14" fill="#00ffbb" opacity="0.2" filter="url(#glow)">
    <animate attributeName="r" values="14;12;14" dur="3s" repeatCount="indefinite"/>
    <animate attributeName="opacity" values="0.2;0.3;0.2" dur="3s" repeatCount="indefinite"/>
  </circle>
  
  <circle cx="100" cy="100" r="6" fill="#00ffbb" opacity="0.6">
    <animate attributeName="r" values="6;5;6" dur="2s" repeatCount="indefinite"/>
  </circle>
  
  <!-- DNA double helix symbol in center -->
  <path d="M93 95 Q100 90, 107 95 Q100 100, 93 95" fill="none" stroke="#ffffff" stroke-width="0.8"/>
  <path d="M93 105 Q100 100, 107 105 Q100 110, 93 105" fill="none" stroke="#ffffff" stroke-width="0.8"/>
  <line x1="94" y1="95" x2="94" y2="105" stroke="#ffffff" stroke-width="0.8"/>
  <line x1="106" y1="95" x2="106" y2="105" stroke="#ffffff" stroke-width="0.8"/>
  
  <!-- Scanner overlay -->
  <rect width="100%" height="100%" fill="url(#scanline)" rx="10" ry="10"/>
</svg>